<svg id="svg" version="1.1" width="400" height="355.6650246305419" viewBox="0 0 400 355.6650246305419" xmlns="http://www.w3.org/2000/svg" xmlns:xlink="http://www.w3.org/1999/xlink" ><g id="svgg"><path id="path0" d="M0.150 0.390 C 0.067 0.604,0.006 37.208,0.014 81.732 L 0.027 162.685 24.521 113.732 L 49.015 64.778 129.680 64.778 L 210.346 64.778 202.340 80.788 L 194.334 96.798 135.406 96.798 L 76.477 96.798 38.239 173.276 L -0.000 249.754 -0.000 254.187 L 0.000 258.621 118.966 258.621 L 237.932 258.621 229.926 274.631 L 221.920 290.640 110.960 290.640 L 0.000 290.640 0.000 323.153 L 0.000 355.665 135.222 355.665 L 270.443 355.665 310.837 274.877 C 333.054 230.444,351.232 194.033,351.232 193.966 C 351.232 193.898,296.755 193.842,230.172 193.842 C 163.590 193.842,109.113 193.787,109.113 193.718 C 109.113 193.650,112.716 186.390,117.119 177.585 L 125.124 161.576 246.306 161.576 L 367.487 161.576 383.621 129.311 C 392.494 111.565,399.754 96.989,399.754 96.922 C 399.754 96.854,371.767 96.798,337.561 96.798 L 275.369 96.798 299.507 48.522 C 312.783 21.971,323.645 0.191,323.645 0.123 C 323.645 -0.257,0.295 0.010,0.150 0.390 " stroke="none" fill="#ffffff" fill-rule="evenodd" fill-opacity="0.3"></path></g></svg>