<svg id="svg" version="1.1" width="400" height="405.33333333333337" viewBox="0 0 400 405.33333333333337" xmlns="http://www.w3.org/2000/svg" xmlns:xlink="http://www.w3.org/1999/xlink" ><g id="svgg"><path id="path0" d="M0.170 0.444 C 0.077 0.688,0.007 42.404,0.016 93.146 L 0.031 185.404 27.945 129.614 L 55.860 73.825 147.790 73.825 L 239.720 73.825 230.596 92.070 L 221.473 110.316 154.315 110.316 L 87.157 110.316 43.579 197.474 L -0.000 284.632 -0.000 289.684 L 0.000 294.737 135.579 294.737 L 271.159 294.737 262.035 312.982 L 252.911 331.228 126.456 331.228 L 0.000 331.228 0.000 368.281 L 0.000 405.333 154.105 405.333 L 308.210 405.333 354.105 313.544 C 379.347 263.060,400.000 221.565,400.000 221.334 C 400.000 220.960,384.524 220.912,262.175 220.912 C 186.372 220.912,124.351 220.849,124.351 220.771 C 124.351 220.693,128.456 212.420,133.474 202.385 L 142.597 184.140 271.299 184.140 L 400.000 184.140 400.000 147.228 L 400.000 110.316 356.912 110.316 L 313.824 110.316 341.333 55.299 C 356.463 25.039,368.842 0.218,368.842 0.141 C 368.842 -0.292,0.337 0.011,0.170 0.444 " stroke="none" fill="#ffffff" fill-rule="evenodd"></path><path id="path1" d="M0.170 0.444 C 0.077 0.688,0.007 42.404,0.016 93.146 L 0.031 185.404 27.945 129.614 L 55.860 73.825 147.790 73.825 L 239.720 73.825 230.596 92.070 L 221.473 110.316 154.315 110.316 L 87.157 110.316 43.579 197.474 L -0.000 284.632 -0.000 289.684 L 0.000 294.737 135.579 294.737 L 271.159 294.737 262.035 312.982 L 252.911 331.228 126.456 331.228 L 0.000 331.228 0.000 368.281 L 0.000 405.333 154.105 405.333 L 308.210 405.333 354.105 313.544 C 379.347 263.060,400.000 221.565,400.000 221.334 C 400.000 220.960,384.524 220.912,262.175 220.912 C 186.372 220.912,124.351 220.849,124.351 220.771 C 124.351 220.693,128.456 212.420,133.474 202.385 L 142.597 184.140 271.299 184.140 L 400.000 184.140 400.000 147.228 L 400.000 110.316 356.912 110.316 L 313.824 110.316 341.333 55.299 C 356.463 25.039,368.842 0.218,368.842 0.141 C 368.842 -0.292,0.337 0.011,0.170 0.444 " stroke="none" fill="#ffffff" fill-rule="evenodd"></path></g></svg>