<svg id="svg" version="1.1" width="400" height="271.50837988826817" viewBox="0 0 400 271.50837988826817"
     xmlns="http://www.w3.org/2000/svg" xmlns:xlink="http://www.w3.org/1999/xlink">
    <g id="svgg">
        <path id="path0"
              d="M8.396 0.358 C 8.079 0.634,7.997 0.879,8.042 1.419 L 8.101 2.121 8.659 1.297 C 8.966 0.843,9.285 0.366,9.367 0.236 C 9.606 -0.143,8.867 -0.050,8.396 0.358 M49.022 98.976 C 22.162 152.696,0.186 196.690,0.186 196.741 C 0.186 196.792,13.971 196.834,30.819 196.834 L 61.453 196.834 98.091 123.557 L 134.730 50.279 195.671 50.279 L 256.611 50.279 250.559 62.384 L 244.506 74.488 199.953 74.488 L 155.400 74.488 124.814 135.661 L 94.227 196.834 185.754 196.834 C 236.094 196.834,277.281 196.876,277.281 196.927 C 277.281 196.978,274.579 202.425,271.276 209.031 L 265.271 221.043 173.697 221.043 L 82.123 221.043 69.832 245.624 L 57.542 270.205 179.795 270.205 L 302.048 270.205 332.588 209.125 C 349.385 175.531,363.128 148.003,363.128 147.952 C 363.128 147.900,321.941 147.858,271.601 147.858 C 221.262 147.858,180.074 147.817,180.074 147.766 C 180.074 147.715,182.777 142.268,186.079 135.661 L 192.084 123.650 283.705 123.650 L 375.327 123.650 387.570 99.162 C 394.304 85.693,399.814 74.632,399.814 74.581 C 399.814 74.530,378.696 74.488,352.886 74.488 C 327.076 74.488,305.959 74.446,305.959 74.395 C 305.959 74.343,314.171 57.877,324.209 37.802 L 342.458 1.304 220.158 1.304 L 97.858 1.304 49.022 98.976 M6.598 3.000 C 6.361 3.384,6.915 3.761,7.188 3.401 C 7.325 3.220,7.440 3.028,7.443 2.973 C 7.454 2.790,6.713 2.814,6.598 3.000 M6.378 4.201 C 6.250 4.340,6.145 4.560,6.145 4.689 C 6.145 4.819,6.279 4.733,6.444 4.499 C 6.779 4.019,6.734 3.814,6.378 4.201 M5.310 5.024 C 5.036 5.328,5.019 5.444,5.213 5.678 C 5.424 5.932,5.476 5.928,5.698 5.635 C 6.258 4.897,5.915 4.356,5.310 5.024 M4.888 6.436 C 4.760 6.574,4.655 6.794,4.655 6.924 C 4.655 7.053,4.790 6.968,4.954 6.733 C 5.290 6.254,5.245 6.049,4.888 6.436 M4.164 7.356 C 4.223 7.509,4.190 7.635,4.091 7.635 C 3.992 7.635,3.911 7.777,3.911 7.950 C 3.911 8.225,3.946 8.219,4.184 7.903 C 4.511 7.471,4.549 7.076,4.263 7.076 C 4.150 7.076,4.105 7.202,4.164 7.356 M3.399 8.670 C 3.270 8.809,3.166 9.029,3.166 9.158 C 3.166 9.288,3.300 9.202,3.464 8.968 C 3.800 8.488,3.755 8.283,3.399 8.670 M2.368 9.453 C 2.204 9.633,2.079 10.065,2.089 10.411 C 2.107 11.053,2.607 10.766,2.607 10.113 C 2.607 9.979,2.691 9.870,2.793 9.870 C 2.896 9.870,2.980 9.702,2.980 9.497 C 2.980 9.037,2.758 9.021,2.368 9.453 M1.042 11.527 C 0.540 12.051,0.447 12.657,0.848 12.791 C 0.956 12.827,1.229 12.529,1.454 12.129 C 2.139 10.909,1.929 10.601,1.042 11.527 M0.113 13.144 C 0.051 13.306,0.001 13.662,0.001 13.935 L 0.002 14.432 0.372 13.873 C 0.576 13.566,0.743 13.210,0.744 13.082 C 0.745 12.746,0.247 12.795,0.113 13.144 "
              stroke="none" fill="#ffffff"  fill-opacity="0.3" fill-rule="evenodd"></path>

    </g>
</svg>
