<svg id="svg" version="1.1" width="400" height="271.50837988826817" viewBox="0 0 400 271.50837988826817"
     xmlns="http://www.w3.org/2000/svg" xmlns:xlink="http://www.w3.org/1999/xlink">
    <g id="svgg">
        <path id="path0"
              d="M49.022 98.976 C 22.162 152.696,0.186 196.690,0.186 196.741 C 0.186 196.792,13.950 196.834,30.773 196.834 L 61.360 196.834 97.998 123.557 L 134.637 50.279 195.624 50.279 L 256.611 50.279 250.559 62.384 L 244.506 74.488 199.953 74.488 L 155.400 74.488 124.814 135.661 L 94.227 196.834 185.848 196.834 L 277.468 196.834 271.415 208.939 L 265.363 221.043 173.743 221.043 L 82.123 221.043 69.926 245.437 C 63.217 258.854,57.728 269.916,57.728 270.018 C 57.728 270.143,98.449 270.205,179.888 270.205 L 302.048 270.205 332.588 209.125 C 349.385 175.531,363.128 148.003,363.128 147.952 C 363.128 147.900,321.941 147.858,271.601 147.858 C 221.262 147.858,180.074 147.816,180.074 147.765 C 180.074 147.713,182.798 142.224,186.127 135.567 L 192.179 123.464 283.799 123.464 L 375.419 123.464 387.616 99.069 C 394.325 85.652,399.814 74.633,399.814 74.581 C 399.814 74.530,378.655 74.488,352.793 74.488 L 305.773 74.488 324.022 37.989 C 334.060 17.915,342.272 1.448,342.272 1.397 C 342.272 1.346,287.279 1.304,220.065 1.304 L 97.858 1.304 49.022 98.976 "
              stroke="none" fill="#ffffff" fill-rule="evenodd" fill-opacity="0.3"></path>
    </g>
</svg>
